<?xml version="1.0" encoding="UTF-8"?>
<svg width="256px" height="256px" viewBox="0 0 256 256" version="1.1" xmlns="http://www.w3.org/2000/svg" xmlns:xlink="http://www.w3.org/1999/xlink">
    <g id="logo" stroke="none" stroke-width="1" fill="none" fill-rule="evenodd">
        <path d="M156.881199,138.683117 C160.186776,137.359548 163.173393,136.208619 166.131014,135.000143 C168.450716,134.050626 170.741422,133.01479 173.061125,132.0365 C174.568932,131.403488 176.134731,130.828024 177.642538,130.195013 C180.97711,128.756351 184.282686,127.288916 187.617259,125.821481 C188.139192,125.591295 188.719118,125.447429 189.212054,125.159697 C192.024694,123.375756 194.982315,121.822001 198.026924,120.440886 C199.85369,119.606462 201.767445,118.944678 203.884173,118.081481 C203.884173,118.944678 203.884173,119.347503 203.884173,119.836648 C204.435103,119.779102 204.957036,119.721555 205.797928,119.606462 C205.218002,120.786165 204.812054,121.706909 204.290121,122.771518 C204.522092,122.800291 204.986032,122.857838 205.913913,123.001704 C205.015028,123.519622 204.435103,123.979994 203.797185,124.21018 C202.492352,124.641778 202.405363,124.785645 203.246255,125.648842 C202.202389,127.461555 201.216515,129.216723 200.172649,131.000663 C199.940679,131.403488 199.563727,131.777541 199.273764,132.151593 C198.664843,132.957243 198.055921,133.791667 197.446999,134.597317 C197.215028,134.913823 197.012054,135.230329 196.722092,135.489288 C195.0983,137.043042 193.416515,138.568024 191.82172,140.208098 C191.58975,140.438284 191.792724,141.071295 191.792724,141.934492 C189.820976,143.114195 187.53027,144.466537 185.297556,145.876425 C183.760753,146.854715 182.281943,147.948098 180.774136,148.983935 C179.875251,149.588172 178.976367,150.249957 178.077482,150.825422 C176.714657,151.688619 175.380828,152.609362 173.931014,153.328693 C170.103504,155.227726 166.218002,157.04044 162.390493,158.881927 C160.882686,159.601258 159.37488,160.378135 157.896069,161.183786 C157.635103,161.327652 157.34514,161.759251 157.34514,162.046983 C157.432129,164.751667 157.461125,167.456351 157.722092,170.161035 C157.983058,172.894492 158.475995,175.599176 158.852947,178.332633 C158.997928,179.36847 159.635846,179.886388 160.650716,180.26044 C164.449229,181.670329 168.42172,181.871741 172.365214,182.447206 C173.119118,182.562299 173.873021,182.763712 174.626924,182.792485 C175.003876,182.792485 175.409824,182.504752 175.786776,182.332113 C175.902761,182.274567 176.018746,182.1307 176.134731,182.159474 C177.439564,182.30334 178.802389,182.30334 180.078225,182.677392 C181.006106,182.936351 181.875995,183.569362 182.542909,184.25992 C182.890865,184.605199 182.687891,185.439622 182.77488,186.331593 C183.499787,186.907057 183.528783,188.057987 182.745883,189.036277 C182.281943,189.611741 182.049973,190.388619 181.702017,191.079176 C181.818002,191.165496 181.933987,191.251816 182.049973,191.338135 C181.731014,191.424455 181.383058,191.712187 181.122092,191.597094 C179.933244,191.136723 179.295326,191.99992 178.367445,192.373972 C176.801645,193.006983 174.97488,192.949436 173.322092,193.438581 C171.669303,193.927726 170.161497,193.294715 168.595698,193.265942 C165.37711,193.179622 162.419489,192.690477 159.548857,191.079176 C157.11317,189.698061 154.271534,189.06505 152.03882,187.223563 C151.284917,186.619325 150.589006,185.899994 150.038077,185.123117 C148.269303,182.648619 146.210567,180.317987 145.282686,177.32557 C144.818746,175.886909 144.47079,174.419474 144.064843,172.952039 C143.687891,171.513377 143.310939,170.074715 142.933987,168.520961 C133.771162,170.074715 127.449973,166.506834 124.057408,157.817317 C123.796441,157.989957 123.477482,158.10505 123.361497,158.306462 C121.85369,160.838507 120.084917,163.255459 118.983058,165.960143 C117.997185,168.377094 116.431385,170.074715 114.604619,171.772336 C113.647742,172.664306 113.096813,174.016648 112.313913,175.110031 C111.79198,175.858135 111.154062,176.548693 110.632129,177.296797 C109.76224,178.534046 109.008337,179.828842 108.109452,181.008544 C107.384545,181.986834 106.48566,182.850031 105.702761,183.770775 C104.194954,185.554715 102.774136,187.424975 101.179341,189.122596 C100.106478,190.273526 98.7436529,191.165496 97.6127979,192.258879 C96.4239503,193.381035 95.4090804,194.647057 94.2202328,195.769213 C93.3793406,196.574864 92.3644708,197.179102 91.5235786,197.955979 C91.2336157,198.243712 91.2916083,198.876723 91.0016455,199.164455 C90.4217198,199.73992 89.725809,200.200291 89.0588945,200.689436 C87.5510879,201.811593 85.9852886,202.876202 84.5064782,204.027132 C82.7667012,205.379474 80.6499726,205.293154 78.6492291,205.667206 C77.402389,205.897392 76.06856,205.897392 74.7927235,205.868619 C74.2417942,205.868619 73.7198611,205.52334 73.1689317,205.3507 C72.7339875,205.206834 72.270047,204.976648 71.8061064,205.005422 C69.2254373,205.091741 67.5146566,203.825719 66.0648425,201.811593 C65.4849169,201.005942 64.4120544,200.516797 63.5711622,199.855013 C63.3101957,199.6536 63.0492291,199.423414 62.8172589,199.164455 C61.3384485,197.380514 59.8306418,195.625347 58.4678165,193.78386 C57.6269243,192.632931 56.9890061,191.309362 56.3510879,190.04334 C55.8291548,189.007503 55.3942105,187.942894 55.0462551,186.878284 C54.5533183,185.324529 54.1473704,183.742001 53.7124261,182.188247 C53.4514596,181.23873 53.1035042,180.317987 53.0455116,179.36847 C52.9585228,177.383117 51.8276678,175.484083 52.7265525,173.441184 C52.7555488,173.354864 52.6975563,173.268544 52.66856,173.153451 C51.4217198,169.096425 52.3206046,165.068172 52.6975563,161.011146 C52.871534,159.025793 52.871534,156.982894 53.1325005,154.997541 C53.3354745,153.415013 53.8284113,151.832485 54.1763667,150.27873 C54.2053629,150.134864 54.2343592,149.990998 54.2343592,149.847132 C54.5823146,146.595756 55.336218,143.4307 56.2351027,140.294418 C56.8730209,138.050106 57.6559206,135.86334 58.3228351,133.647801 C58.4388202,133.244975 58.1488574,132.75583 58.2068499,132.353005 C58.3808276,131.317169 58.0908648,130.166239 59.1057347,129.360589 C59.2797124,129.216723 59.3087087,128.842671 59.3087087,128.583712 C59.3087087,127.605422 59.337705,126.598358 59.2217198,125.620068 C59.1057347,124.756871 58.9897496,123.836128 58.5548053,123.116797 C57.4819429,121.390403 57.3079652,120.843712 58.6417942,119.49137 C59.6856603,118.455533 60.9614968,117.247057 62.3243221,116.959325 C63.6871473,116.700366 65.2529466,117.419697 66.7027607,117.851295 C67.7176306,118.167801 68.8484856,118.51308 69.5733927,119.203637 C70.4722774,120.038061 71.0232068,121.217764 71.6901213,122.282373 C72.6759949,123.893674 73.6908648,125.533749 74.5897496,127.202596 C74.9956975,127.9507 75.2566641,128.842671 75.3436529,129.705868 C75.6916083,132.986016 75.9815711,136.266165 76.2135414,139.546314 C76.271534,140.351964 75.9815711,141.157615 75.9235786,141.963265 C75.8945823,142.53873 75.9815711,143.114195 75.9815711,143.689659 C75.9815711,144.150031 76.0105674,144.610403 75.9235786,145.042001 C75.7206046,146.106611 75.4016455,147.142448 75.1986715,148.207057 C74.9956975,149.21412 74.7927235,150.221184 74.6767384,151.25702 C74.531757,152.494269 74.5027607,153.760291 74.3867756,155.026314 C74.2707905,156.23479 74.1838016,157.443265 73.9808276,158.651741 C73.5168871,161.385199 72.9369615,164.089883 72.4730209,166.82334 C72.2990432,167.887949 72.3860321,169.010106 72.270047,170.103488 C72.2120544,170.65018 72.067073,171.196871 71.8930953,171.71479 C71.6321287,172.491667 71.1681882,173.239771 72.2410507,173.815236 C72.3860321,173.901555 72.4150284,174.304381 72.4150284,174.56334 C72.4440247,175.512856 72.4150284,176.462373 72.4150284,177.987355 C73.8648425,177.296797 75.0536901,176.951518 75.9235786,176.232187 C77.5183741,174.879845 78.9101957,173.297317 80.3890061,171.801109 C81.5198611,170.65018 82.6217198,169.470477 83.6945823,168.290775 C84.999415,166.82334 86.2752514,165.384678 87.4930953,163.859697 C88.8849169,162.075756 90.2767384,160.291816 91.5235786,158.392782 C93.1473704,155.947057 94.6261808,153.415013 96.19198,150.911741 C96.4529466,150.508916 96.8588945,150.19241 97.1778537,149.818358 C97.2938388,149.674492 97.4678165,149.530626 97.4968128,149.357987 C97.6127979,147.602819 99.1496009,146.653303 99.8455116,145.243414 C101.208337,142.423637 102.629155,139.661407 104.049973,136.870403 C104.194954,136.582671 104.484917,136.352485 104.716887,136.093526 C104.861869,135.920886 105.180828,135.805793 105.180828,135.633154 C105.528783,132.525645 107.471534,130.051146 108.5154,127.260143 C109.588263,124.440366 110.748114,121.678135 111.936961,118.915905 C112.197928,118.311667 112.690865,117.822522 113.125809,117.247057 C112.342909,116.239994 113.705735,115.40557 113.618746,114.340961 C113.908709,114.42728 114.140679,114.484827 114.140679,114.484827 C114.372649,113.62163 114.459638,112.815979 114.778597,112.096648 C116.228411,108.64386 117.765214,105.219845 119.157036,101.738284 C119.852947,99.9831167 120.37488,98.170403 120.954805,96.3576892 C122.201645,92.4733026 123.593467,88.6176892 124.637333,84.7045294 C125.536218,81.3092877 126.986032,78.2017784 129.044768,75.3820015 C130.755549,73.0225963 132.6983,70.8070572 134.496069,68.562745 C134.641051,67.6132282 134.612054,66.5486186 134.96001,65.6566483 C135.800902,63.5562022 136.554805,61.4845294 138.294582,59.7293621 C139.599415,58.4057933 140.440307,56.2478007 140.73027,54.3775405 C141.049229,52.1332282 143.339935,49.6875033 145.804619,50.0327821 C147.167445,50.2054216 148.617259,50.0327821 150.00908,50.0903286 C151.632872,50.1478751 153.256664,50.3205145 154.735474,51.126165 C155.924322,51.7879494 157.287147,52.1620015 158.475995,52.8237859 C159.026924,53.1402914 159.490865,53.8308491 159.722835,54.435087 C160.360753,56.1327078 160.708709,57.9166483 161.317631,59.6430424 C161.63659,60.5062394 161.08566,61.6571688 161.027668,62.6930052 C160.969675,63.4986558 160.940679,64.3043063 161.027668,65.0811836 C161.230642,67.2679494 161.549601,69.425942 161.752575,71.6127078 C161.926553,73.5405145 162.013541,75.4683212 162.013541,77.3961279 C162.013541,78.6621502 161.86856,79.9569457 161.752575,81.222968 C161.462612,84.6757561 161.259638,88.1573175 160.85369,91.6101056 C160.592724,93.7393249 159.722835,95.839771 159.60685,97.9689903 C159.490865,99.9543435 158.678969,101.910923 159.287891,103.953823 C159.519861,104.701927 159.258895,105.593897 159.258895,106.399548 C159.229898,109.334418 159.229898,112.269288 159.142909,115.204158 C159.026924,119.261184 158.82395,123.289436 158.649973,127.346462 C158.620976,127.778061 158.59198,128.209659 158.562984,128.641258 C158.389006,131.288396 158.244025,133.964306 157.954062,136.611444 C157.954062,137.158135 157.403132,137.762373 156.881199,138.683117 Z M131.480456,144.063712 C132.524322,144.524083 133.481199,144.783042 134.206106,145.329734 C136.032872,146.710849 137.917631,146.768396 139.918374,145.905199 C141.223207,145.329734 142.470047,144.725496 143.919861,144.034938 C144.296813,138.193972 144.673764,132.209139 145.02172,126.25308 C145.369675,120.412113 145.659638,114.542373 145.978597,108.701407 C145.775623,108.672633 145.572649,108.64386 145.369675,108.586314 C141.339192,120.671072 136.98975,132.583191 131.480456,144.063712 Z M53.5094522,70.9221502 C52.7265525,71.5839346 51.9146566,72.2457189 51.131757,72.9075033 C50.9867756,72.7636372 50.8417942,72.619771 50.6968128,72.4471316 C51.3057347,71.6990275 51.8856603,70.9509234 52.4945823,70.2028193 C53.1614968,69.425942 53.8284113,68.6778379 54.5243221,67.9297338 C54.6982998,67.7283212 54.9882626,67.5269085 55.2202328,67.4981353 C56.1771102,67.4405888 57.0759949,67.5269085 57.4529466,66.232113 C57.5399354,65.8868342 58.8447682,65.7717413 59.5696752,65.8005145 C60.9035042,65.858061 62.2083369,66.0882468 63.5421659,66.2608862 C64.6440247,64.7359048 66.3838016,65.3113695 67.5436529,65.6278751 C70.0083369,66.3184327 72.3860321,67.5556818 74.0968128,69.5698082 C74.531757,70.0877264 74.6767384,70.8646037 74.937705,71.5263881 C75.2856603,72.4471316 75.6916083,73.3391018 75.9235786,74.2598453 C76.3295265,75.9286929 75.3726492,77.7414067 73.6328722,78.2880981 C72.6759949,78.5758305 72.5600098,79.0649755 72.4150284,79.870626 C72.2990432,80.5611836 71.8930953,81.1941948 71.6321287,81.8559792 C71.5161436,81.8272059 71.3711622,81.7696595 71.2551771,81.7408862 C71.5161436,82.3163509 71.864099,82.8918156 72.0090804,83.4960535 C72.2410507,84.5894364 72.1830581,84.6182097 73.4588945,84.7908491 C73.0239503,85.1073546 72.4730209,85.3663137 72.1540618,85.769139 C71.8061064,86.2007375 71.7771102,86.8912952 71.4291548,87.3228937 C70.6462551,88.2148639 69.6893778,89.0205145 68.8484856,89.8837115 C68.6745079,90.0851242 68.5585228,90.3728565 68.5005302,90.6318156 C68.4425377,90.8332282 68.5875191,91.1785071 68.471534,91.2648268 C67.5436529,92.0704773 66.5867756,92.8761279 65.600902,93.6530052 C65.1079652,94.0270572 64.5280395,94.2284699 64.0061064,94.5449755 C62.9042477,95.2067598 61.8313853,95.8685442 60.7295265,96.5591018 C60.5265525,96.702968 60.4105674,96.9907004 60.1785971,97.1057933 C59.8016455,97.3072059 59.337705,97.6524847 58.9607533,97.566165 C56.670047,97.0770201 54.4663295,96.328916 53.0165154,94.4011093 C52.262612,93.3940461 51.6536901,92.2143435 51.334731,91.0058676 C50.7838016,88.8766483 50.4068499,86.7186558 50.1168871,84.53189 C49.9429094,83.2658676 49.9719057,81.9135256 50.1458834,80.6475033 C50.5808276,77.3961279 51.2187458,74.2022989 53.5384485,71.641481 C53.6544336,71.4976149 53.6544336,71.267429 53.7414224,71.0660163 C53.7124261,71.0372431 53.596441,70.9796966 53.5094522,70.9221502 Z M61.3384485,84.8771688 C61.0774819,85.4814067 60.8455116,85.884232 60.7875191,86.3158305 C60.7585228,86.4309234 61.3094522,86.8049755 61.4834299,86.747429 C62.2663295,86.4596966 63.2522031,86.258284 63.7741362,85.6828193 C64.8759949,84.3880238 66.6447682,83.7550126 67.3116827,81.9998453 C67.5146566,81.4531539 68.5585228,81.222968 68.7035042,80.6762766 C69.0514596,79.4102543 69.7473704,79.9857189 70.4432812,80.1008119 C70.8492291,80.1871316 71.2551771,80.2446781 71.6321287,80.2159048 C71.7191176,80.2159048 71.9220916,79.6979866 71.864099,79.6404401 C71.5451399,79.381481 71.1971845,79.0649755 70.8492291,79.007429 C69.9503444,78.892336 69.0514596,78.892336 68.0945823,78.8347896 C67.3116827,79.8993992 66.4997867,81.0503286 65.6878908,82.201258 C65.5429094,82.086165 65.3689317,81.9998453 65.2239503,81.8847524 C65.6298983,81.1366483 66.1228351,80.4173175 66.4127979,79.6404401 C66.5577793,79.2376149 66.5577793,78.3744178 66.3838016,78.3168714 C65.1369615,77.8564996 63.8321287,77.5112208 62.5562923,77.165942 C61.9763667,79.9569457 60.4105674,82.3163509 61.3384485,84.8771688 Z" id="Shape" fill="#333333" fill-rule="nonzero"></path>
    </g>
</svg>
